<svg width="1025" height="225" viewBox="0 0 1025 225" fill="none" xmlns="http://www.w3.org/2000/svg">
<path d="M948.981 159.425C943.976 159.425 941.473 158.115 941.473 155.495V69.1791C941.473 67.8223 942.081 66.8165 943.297 66.1615C944.514 65.4598 946.408 65.1089 948.981 65.1089H952.42C957.426 65.1089 959.929 66.4656 959.929 69.1791V101.39C961.987 98.9101 964.537 96.8984 967.578 95.3545C970.666 93.7639 973.964 92.9685 977.473 92.9685C983.742 92.9685 988.443 94.6294 991.578 97.951C994.712 101.226 996.28 106.278 996.28 113.109V155.495C996.28 158.115 993.8 159.425 988.841 159.425H985.402C980.35 159.425 977.824 158.115 977.824 155.495V115.916C977.824 110.77 975.157 108.197 969.824 108.197C967.578 108.197 965.59 108.945 963.859 110.442C962.174 111.893 960.864 113.553 959.929 115.425V155.495C959.929 158.115 957.426 159.425 952.42 159.425H948.981Z" fill="url(#paint0_linear_915_114)"/>
<path d="M909.333 160.267C898.713 160.267 890.83 157.53 885.684 152.056C880.538 146.536 877.965 138.185 877.965 127.004C877.965 115.729 880.561 107.238 885.754 101.53C890.947 95.8226 899.041 92.9688 910.035 92.9688C913.17 92.9688 916.327 93.3196 919.509 94.0214C922.737 94.6764 925.403 95.6588 927.509 96.9688C929.661 98.2319 930.737 99.7758 930.737 101.6C930.737 102.349 930.316 103.518 929.474 105.109C928.678 106.7 927.743 108.127 926.667 109.39C925.637 110.606 924.772 111.214 924.07 111.214C923.743 111.214 923.017 110.887 921.895 110.232C920.117 109.39 918.433 108.735 916.842 108.267C915.251 107.752 913.31 107.495 911.017 107.495C906.105 107.495 902.526 109.062 900.281 112.197C898.035 115.285 896.912 120.056 896.912 126.513C896.912 133.016 897.965 137.834 900.07 140.969C902.222 144.056 905.637 145.6 910.316 145.6C912.889 145.6 915.134 145.343 917.053 144.828C918.971 144.267 920.795 143.565 922.526 142.723C922.854 142.583 923.251 142.419 923.719 142.232C924.187 142.045 924.538 141.951 924.772 141.951C925.614 141.951 926.526 142.559 927.509 143.776C928.538 144.945 929.403 146.302 930.105 147.846C930.854 149.39 931.228 150.583 931.228 151.425C931.228 153.577 929.824 155.308 927.017 156.618C924.21 157.928 921.076 158.863 917.614 159.425C914.152 159.986 911.392 160.267 909.333 160.267Z" fill="url(#paint1_linear_915_114)"/>
<path d="M858.104 159.425C853.099 159.425 850.596 158.115 850.596 155.495V143.986C850.596 141.319 853.099 139.986 858.104 139.986H862.104C864.678 139.986 866.549 140.337 867.719 141.039C868.935 141.694 869.543 142.676 869.543 143.986V155.495C869.543 158.115 867.064 159.425 862.104 159.425H858.104Z" fill="url(#paint2_linear_915_114)"/>
<path d="M832.91 160.267C826.969 160.267 822.431 158.606 819.296 155.284C816.209 151.916 814.665 146.817 814.665 139.986V108.548H812.7C811.39 108.548 810.431 108.056 809.823 107.074C809.261 106.091 808.98 104.501 808.98 102.302V100.197C808.98 97.9979 809.261 96.4072 809.823 95.4248C810.431 94.4423 811.39 93.9511 812.7 93.9511H814.665L816.279 82.0914C816.653 79.4716 818.899 78.1616 823.016 78.1616H826.945C829.097 78.1616 830.665 78.4891 831.647 79.1441C832.676 79.799 833.191 80.7815 833.191 82.0914V93.9511H839.296C840.606 93.9511 841.542 94.4423 842.103 95.4248C842.711 96.4072 843.016 97.9979 843.016 100.197V102.302C843.016 104.501 842.711 106.091 842.103 107.074C841.542 108.056 840.606 108.548 839.296 108.548H833.191V140.197C833.191 142.115 833.518 143.495 834.173 144.337C834.875 145.179 836.021 145.6 837.612 145.6C838.08 145.6 838.711 145.53 839.507 145.39C840.302 145.203 840.793 145.109 840.98 145.109C841.729 145.109 842.384 145.741 842.945 147.004C843.554 148.22 844.021 149.577 844.349 151.074C844.723 152.571 844.91 153.577 844.91 154.091C844.91 158.208 840.91 160.267 832.91 160.267Z" fill="url(#paint3_linear_915_114)"/>
<path d="M775.507 160.267C764.559 160.267 756.396 157.343 751.015 151.495C745.635 145.6 742.945 137.437 742.945 127.004C742.945 115.261 745.635 106.653 751.015 101.179C756.396 95.7056 763.811 92.9688 773.261 92.9688C779.53 92.9688 784.653 94.3957 788.63 97.2495C792.653 100.103 795.577 103.94 797.401 108.758C799.273 113.577 800.208 119.027 800.208 125.109C800.208 125.811 799.787 126.747 798.945 127.916C798.15 129.086 797.238 130.138 796.208 131.074C795.179 132.01 794.384 132.478 793.823 132.478H762.033C762.454 137.249 763.858 140.641 766.244 142.653C768.676 144.618 772.045 145.6 776.349 145.6C778.688 145.6 780.793 145.343 782.665 144.828C784.583 144.267 786.618 143.542 788.77 142.653C790.08 142.045 790.969 141.741 791.437 141.741C792.279 141.741 793.191 142.349 794.173 143.565C795.203 144.735 796.068 146.092 796.77 147.635C797.518 149.179 797.893 150.372 797.893 151.214C797.893 153.132 796.583 154.77 793.963 156.127C791.39 157.483 788.325 158.513 784.77 159.214C781.261 159.916 778.173 160.267 775.507 160.267ZM782.244 120.197C782.244 116.361 781.495 113.296 779.998 111.004C778.501 108.665 776.255 107.495 773.261 107.495C767.086 107.495 763.343 111.729 762.033 120.197H782.244Z" fill="url(#paint4_linear_915_114)"/>
<path d="M688.489 159.425C683.483 159.425 680.98 158.115 680.98 155.495V69.1791C680.98 67.8223 681.589 66.8165 682.805 66.1615C684.021 65.4598 685.916 65.1089 688.489 65.1089H691.928C696.934 65.1089 699.437 66.4656 699.437 69.1791V118.512L699.858 118.653L715.016 96.1264C715.671 95.144 716.583 94.5124 717.752 94.2317C718.922 93.9042 720.536 93.7405 722.595 93.7405H727.226C731.904 93.7405 734.244 94.372 734.244 95.6352C734.244 96.2902 733.846 97.0855 733.051 98.0212L715.787 122.793L736.068 154.933C736.77 156.103 737.121 156.969 737.121 157.53C737.121 158.793 734.735 159.425 729.963 159.425H724.77C722.758 159.425 721.121 159.261 719.858 158.933C718.595 158.606 717.729 157.974 717.261 157.039L699.858 128.337L699.437 128.547V155.495C699.437 158.115 696.934 159.425 691.928 159.425H688.489Z" fill="url(#paint5_linear_915_114)"/>
<path d="M642.314 159.425C637.355 159.425 634.876 158.115 634.876 155.495V115.916C634.876 109.928 634.478 104.945 633.683 100.969C633.449 99.7056 633.332 98.8167 633.332 98.3021C633.332 97.3664 634.198 96.6179 635.929 96.0565C637.706 95.4483 639.695 95.0038 641.893 94.7231C644.139 94.4424 645.94 94.3021 647.297 94.3021C648.747 94.3021 649.753 94.8401 650.314 95.9161C650.923 96.9921 651.461 98.5594 651.929 100.618L652.35 102.442C653.94 99.5418 655.765 97.2495 657.823 95.5652C659.929 93.8342 662.619 92.9688 665.893 92.9688C668.607 92.9688 670.478 93.6705 671.507 95.074C672.537 96.4307 673.051 97.9746 673.051 99.7056C673.051 100.641 672.888 101.975 672.56 103.706C672.233 105.39 671.765 106.887 671.157 108.197C670.548 109.507 669.87 110.162 669.122 110.162C668.607 110.162 667.835 110.021 666.806 109.741C665.402 109.366 664.209 109.179 663.227 109.179C660.934 109.179 658.923 109.834 657.192 111.144C655.507 112.407 654.221 113.834 653.332 115.425V155.495C653.332 158.115 650.806 159.425 645.753 159.425H642.314Z" fill="url(#paint6_linear_915_114)"/>
<path d="M582.735 160.267C576.373 160.267 571.695 158.606 568.7 155.285C565.753 151.916 564.279 147.472 564.279 141.951C564.279 137.787 565.145 134.045 566.876 130.723C568.607 127.355 572.116 124.524 577.402 122.232C582.689 119.94 590.244 118.793 600.069 118.793V114.653C600.069 112.22 599.297 110.419 597.753 109.249C596.209 108.08 593.753 107.495 590.385 107.495C587.578 107.495 585.168 107.799 583.156 108.407C581.145 108.969 578.969 109.741 576.63 110.723C575.414 111.285 574.665 111.565 574.385 111.565C573.542 111.565 572.607 110.934 571.578 109.671C570.595 108.407 569.73 106.957 568.981 105.32C568.233 103.682 567.858 102.442 567.858 101.6C567.858 100.15 568.887 98.7699 570.946 97.46C573.051 96.1033 575.928 95.0272 579.578 94.2319C583.227 93.3898 587.273 92.9688 591.718 92.9688C601.075 92.9688 607.882 94.8401 612.139 98.5828C616.396 102.279 618.525 107.355 618.525 113.811V137.179C618.525 141.062 618.618 144.08 618.806 146.232C619.04 148.384 619.344 150.513 619.718 152.618C619.952 153.881 620.069 154.77 620.069 155.285C620.069 156.22 619.18 156.992 617.402 157.6C615.671 158.209 613.683 158.653 611.437 158.934C609.192 159.214 607.39 159.355 606.034 159.355C604.583 159.355 603.531 158.747 602.876 157.53C602.268 156.267 601.776 154.559 601.402 152.407C601.355 152.127 601.309 151.846 601.262 151.565C601.215 151.285 601.145 151.004 601.051 150.723C600.583 151.612 599.578 152.805 598.034 154.302C596.537 155.799 594.478 157.179 591.858 158.442C589.238 159.659 586.197 160.267 582.735 160.267ZM588.841 145.6C591.18 145.6 593.379 144.875 595.437 143.425C597.496 141.928 599.04 140.033 600.069 137.741V130.863C588.42 130.863 582.595 133.928 582.595 140.056C582.595 141.694 583.133 143.027 584.209 144.056C585.332 145.086 586.876 145.6 588.841 145.6Z" fill="url(#paint7_linear_915_114)"/>
<path d="M532.56 92.9688C538.783 92.9688 543.367 94.6062 546.315 97.881C549.309 101.156 550.806 106.232 550.806 113.109V155.495C550.806 158.115 548.28 159.425 543.227 159.425H539.788C534.829 159.425 532.35 158.115 532.35 155.495V115.916C532.35 113.39 531.765 111.472 530.595 110.162C529.473 108.852 527.578 108.197 524.911 108.197C522.572 108.197 520.584 108.922 518.946 110.372C517.356 111.776 516.069 113.413 515.087 115.285V155.495C515.087 158.115 512.584 159.425 507.578 159.425H504.069C499.11 159.425 496.63 158.115 496.63 155.495V115.916C496.63 113.39 496.046 111.472 494.876 110.162C493.753 108.852 491.882 108.197 489.262 108.197C487.016 108.197 485.028 108.945 483.297 110.442C481.613 111.94 480.326 113.6 479.438 115.425V155.495C479.438 158.115 476.911 159.425 471.859 159.425H468.42C463.461 159.425 460.981 158.115 460.981 155.495V115.916C460.981 109.928 460.584 104.945 459.788 100.969C459.554 99.7056 459.438 98.8167 459.438 98.3021C459.438 97.3664 460.303 96.6179 462.034 96.0565C463.812 95.4483 465.8 95.0038 467.999 94.7231C470.245 94.4424 472.046 94.3021 473.402 94.3021C474.853 94.3021 475.859 94.8401 476.42 95.9161C477.028 96.9921 477.566 98.5594 478.034 100.618L478.455 102.442C480.42 99.7758 483.04 97.5302 486.315 95.7056C489.59 93.881 493.122 92.9688 496.911 92.9688C501.215 92.9688 504.701 93.7407 507.367 95.2845C510.081 96.8284 512.069 99.2144 513.332 102.442C515.438 99.7758 518.198 97.5302 521.613 95.7056C525.028 93.881 528.677 92.9688 532.56 92.9688Z" fill="url(#paint8_linear_915_114)"/>
<path d="M417.753 160.267C407.882 160.267 400.35 157.367 395.157 151.565C390.011 145.764 387.438 137.413 387.438 126.513C387.438 115.659 390.011 107.355 395.157 101.601C400.35 95.8462 407.882 92.969 417.753 92.969C427.625 92.969 435.11 95.8462 440.209 101.601C445.356 107.308 447.929 115.612 447.929 126.513C447.929 137.413 445.356 145.764 440.209 151.565C435.11 157.367 427.625 160.267 417.753 160.267ZM417.753 145.601C421.683 145.601 424.56 144.01 426.385 140.829C428.256 137.647 429.192 132.875 429.192 126.513C429.192 120.197 428.256 115.449 426.385 112.267C424.56 109.086 421.683 107.495 417.753 107.495C409.987 107.495 406.104 113.834 406.104 126.513C406.104 132.829 407.04 137.601 408.911 140.829C410.829 144.01 413.777 145.601 417.753 145.601Z" fill="url(#paint9_linear_915_114)"/>
<path d="M367.227 160.267C361.285 160.267 356.747 158.606 353.613 155.285C350.525 151.916 348.981 146.817 348.981 139.986V108.548H347.016C345.706 108.548 344.747 108.057 344.139 107.074C343.578 106.092 343.297 104.501 343.297 102.302V100.197C343.297 97.9981 343.578 96.4075 344.139 95.425C344.747 94.4426 345.706 93.9513 347.016 93.9513H348.981L350.595 82.0917C350.969 79.4718 353.215 78.1619 357.332 78.1619H361.262C363.414 78.1619 364.981 78.4894 365.964 79.1443C366.993 79.7993 367.507 80.7817 367.507 82.0917V93.9513H373.613C374.923 93.9513 375.858 94.4426 376.42 95.425C377.028 96.4075 377.332 97.9981 377.332 100.197V102.302C377.332 104.501 377.028 106.092 376.42 107.074C375.858 108.057 374.923 108.548 373.613 108.548H367.507V140.197C367.507 142.115 367.835 143.495 368.49 144.337C369.192 145.179 370.338 145.6 371.928 145.6C372.396 145.6 373.028 145.53 373.823 145.39C374.619 145.203 375.11 145.109 375.297 145.109C376.045 145.109 376.7 145.741 377.262 147.004C377.87 148.22 378.338 149.577 378.665 151.074C379.04 152.571 379.227 153.577 379.227 154.092C379.227 158.209 375.227 160.267 367.227 160.267Z" fill="url(#paint10_linear_915_114)"/>
<path d="M295.648 160.267C289.379 160.267 284.747 158.63 281.753 155.355C278.759 152.033 277.262 146.91 277.262 139.986V97.6705C277.262 96.3606 277.87 95.3781 279.086 94.7232C280.303 94.0682 282.197 93.7407 284.77 93.7407H288.209C290.782 93.7407 292.677 94.0682 293.893 94.7232C295.11 95.3781 295.718 96.3606 295.718 97.6705V137.179C295.718 139.752 296.303 141.694 297.472 143.004C298.642 144.314 300.56 144.969 303.227 144.969C305.519 144.969 307.507 144.244 309.192 142.793C310.923 141.296 312.256 139.612 313.192 137.741V97.6705C313.192 96.3606 313.8 95.3781 315.016 94.7232C316.232 94.0682 318.127 93.7407 320.7 93.7407H324.139C326.712 93.7407 328.607 94.0682 329.823 94.7232C331.039 95.3781 331.648 96.3606 331.648 97.6705V137.179C331.648 141.109 331.741 144.197 331.928 146.442C332.162 148.641 332.443 150.7 332.77 152.618C333.004 153.881 333.121 154.77 333.121 155.285C333.121 156.22 332.256 156.992 330.525 157.6C328.794 158.209 326.806 158.653 324.56 158.934C322.361 159.214 320.583 159.355 319.227 159.355C317.73 159.355 316.654 158.77 315.999 157.6C315.39 156.384 314.899 154.676 314.525 152.478L314.174 150.723C312.209 153.39 309.566 155.659 306.244 157.53C302.969 159.355 299.437 160.267 295.648 160.267Z" fill="url(#paint11_linear_915_114)"/>
<path d="M201.051 159.425C195.952 159.425 193.402 158.513 193.402 156.688C193.402 156.173 193.566 155.425 193.894 154.442L221.402 74.2319C222.057 72.4541 224.42 71.5652 228.49 71.5652H234.946C239.016 71.5652 241.379 72.4541 242.034 74.2319L269.543 154.442C269.777 155.378 269.894 156.127 269.894 156.688C269.894 157.624 269.379 158.325 268.35 158.793C267.367 159.214 265.8 159.425 263.648 159.425H258.174C256.209 159.425 254.619 159.238 253.402 158.863C252.233 158.442 251.508 157.764 251.227 156.828L246.174 141.6H216.771L211.718 156.828C211.204 158.559 209.285 159.425 205.964 159.425H201.051ZM240.841 125.109L233.753 102.934C233.332 101.811 232.958 100.524 232.63 99.074C232.35 97.6237 232.092 96.2435 231.858 94.9336H231.367L231.087 96.4775C230.619 99.2377 230.081 101.39 229.473 102.934L222.104 125.109H240.841Z" fill="url(#paint12_linear_915_114)"/>
<path fill-rule="evenodd" clip-rule="evenodd" d="M144.096 141.828C141.694 145.961 137.03 148.694 131.731 148.694H79.0908L71.3185 162.028H156.108V175.361H71.3185C60.5785 175.361 53.7953 164.494 58.9534 155.561L68.4922 139.294L43.0554 88.6944H28.9238V75.3611H52.0289L58.6707 88.6944H163.244C168.614 88.6944 172.006 94.1611 169.391 98.5611L144.096 141.828ZM151.233 102.028H65.3841L82.1299 135.361H131.732L151.233 102.028ZM71.3134 182.028C63.541 182.028 57.2525 188.028 57.2525 195.361C57.2525 202.694 63.541 208.694 71.3134 208.694C79.0857 208.694 85.4449 202.694 85.4449 195.361C85.4449 188.028 79.0857 182.028 71.3134 182.028ZM127.916 195.361C127.916 188.028 134.204 182.028 141.977 182.028C149.749 182.028 156.108 188.028 156.108 195.361C156.108 202.694 149.749 208.694 141.977 208.694C134.204 208.694 127.916 202.694 127.916 195.361Z" fill="url(#paint13_linear_915_114)"/>
<path d="M70.3953 80.5525C69.7564 78.8284 70.3953 65.3551 70.3953 65.3551C70.3953 65.3551 70.3951 52.2247 70.7071 50.2959C71.0191 48.367 74.2372 44.9519 75.0664 43.8957C76.0664 42.6218 77.6611 38.9767 79.8029 33.0698C83.4511 23.0078 83.3809 18.6379 91.3686 16.6814C91.3686 16.6814 91.3686 16.6815 130.083 16.6815C136.325 18.0438 137.724 22.6935 139.357 27.0864C144.282 40.3312 144.979 41.9514 146.786 44.3639C151.012 50.0077 150.708 48.5157 151.055 65.2989C151.055 65.2989 151.959 78.9766 151.365 80.2729C150.771 81.5693 148.112 83.3071 145.392 83.3071C142.93 83.3071 142.207 83.1153 141.122 82.1747C139.909 81.123 139.804 80.7523 139.65 76.9707L139.484 72.899L138.021 73.1673C127.595 75.0784 93.8156 75.0726 83.3809 73.1579L81.8682 72.8803V76.2403C81.8682 79.8286 81.1126 81.99 79.5667 82.824C79.0742 83.0897 77.3847 83.3071 75.8122 83.3071C73.239 83.3071 71.0341 82.2766 70.3953 80.5525ZM87.6884 60.1223C90.7443 57.0419 89.1955 51.7801 85.0324 51.0991C79.8433 50.2502 76.9803 57.0528 81.1081 60.4234C82.6704 61.699 86.2886 61.5335 87.6884 60.1223ZM139.772 60.7207C140.942 60.1832 142.376 57.7819 142.376 56.3597C142.376 53.7075 139.747 50.9326 137.233 50.9326C133.823 50.9326 131.108 54.594 132.152 57.7837C133.146 60.8186 136.633 62.1626 139.772 60.7207ZM122.442 57.194C123.014 56.6717 123.293 55.7589 123.293 54.4055C123.293 51.0306 122.935 50.9326 110.601 50.9326C110.601 50.9326 110.601 50.9326 99.9783 50.9326C97.6933 50.968 97.794 52.6642 97.6933 54.2265C97.5994 55.6827 98.5103 57.0962 99.2757 57.6115C99.5574 57.8011 104.693 57.9594 110.689 57.9634C120.186 57.9696 121.7 57.8705 122.442 57.194ZM85.2488 41.032C85.2488 41.032 127.664 39.6984 136.325 41.0525C137.733 41.2726 138.934 41.408 138.993 41.3533C139.122 41.2339 136.972 34.8673 134.941 29.3534C132.209 21.9387 133.494 22.3118 110.703 22.3118C90.1985 22.3118 89.85 22.3552 88.2377 25.1066C87.2542 26.7849 82.3095 40.8988 82.6018 41.1935C82.717 41.3097 83.9082 41.2371 85.2488 41.032Z" fill="url(#paint14_linear_915_114)"/>
<defs>
<linearGradient id="paint0_linear_915_114" x1="968.876" y1="32.2632" x2="968.876" y2="159.425" gradientUnits="userSpaceOnUse">
<stop stop-color="#BBBBBB"/>
<stop offset="0.313542" stop-color="#646464"/>
<stop offset="0.870833" stop-color="#292929"/>
<stop offset="1" stop-color="#1E1E1E"/>
</linearGradient>
<linearGradient id="paint1_linear_915_114" x1="904.596" y1="69.532" x2="904.596" y2="160.267" gradientUnits="userSpaceOnUse">
<stop stop-color="#BBBBBB"/>
<stop offset="0.313542" stop-color="#646464"/>
<stop offset="0.870833" stop-color="#292929"/>
<stop offset="1" stop-color="#1E1E1E"/>
</linearGradient>
<linearGradient id="paint2_linear_915_114" x1="860.069" y1="133.217" x2="860.069" y2="159.425" gradientUnits="userSpaceOnUse">
<stop stop-color="#BBBBBB"/>
<stop offset="0.313542" stop-color="#646464"/>
<stop offset="0.870833" stop-color="#292929"/>
<stop offset="1" stop-color="#1E1E1E"/>
</linearGradient>
<linearGradient id="paint3_linear_915_114" x1="826.945" y1="78.1616" x2="826.945" y2="160.267" gradientUnits="userSpaceOnUse">
<stop stop-color="#FF900D"/>
<stop offset="0.0001" stop-color="#FFAE4F"/>
<stop offset="0.146875" stop-color="#FD9C2A"/>
<stop offset="0.480208" stop-color="#FF900D"/>
<stop offset="1" stop-color="#FF900D"/>
</linearGradient>
<linearGradient id="paint4_linear_915_114" x1="771.577" y1="92.9688" x2="771.577" y2="160.267" gradientUnits="userSpaceOnUse">
<stop stop-color="#FF900D"/>
<stop offset="0.0001" stop-color="#FFAE4F"/>
<stop offset="0.146875" stop-color="#FD9C2A"/>
<stop offset="0.480208" stop-color="#FF900D"/>
<stop offset="1" stop-color="#FF900D"/>
</linearGradient>
<linearGradient id="paint5_linear_915_114" x1="709.051" y1="65.1089" x2="709.051" y2="159.425" gradientUnits="userSpaceOnUse">
<stop stop-color="#FF900D"/>
<stop offset="0.0001" stop-color="#FFAE4F"/>
<stop offset="0.146875" stop-color="#FD9C2A"/>
<stop offset="0.480208" stop-color="#FF900D"/>
<stop offset="1" stop-color="#FF900D"/>
</linearGradient>
<linearGradient id="paint6_linear_915_114" x1="653.192" y1="92.9688" x2="653.192" y2="159.425" gradientUnits="userSpaceOnUse">
<stop stop-color="#FF900D"/>
<stop offset="0.0001" stop-color="#FFAE4F"/>
<stop offset="0.146875" stop-color="#FD9C2A"/>
<stop offset="0.480208" stop-color="#FF900D"/>
<stop offset="1" stop-color="#FF900D"/>
</linearGradient>
<linearGradient id="paint7_linear_915_114" x1="592.174" y1="92.9688" x2="592.174" y2="160.267" gradientUnits="userSpaceOnUse">
<stop stop-color="#FF900D"/>
<stop offset="0.0001" stop-color="#FFAE4F"/>
<stop offset="0.146875" stop-color="#FD9C2A"/>
<stop offset="0.480208" stop-color="#FF900D"/>
<stop offset="1" stop-color="#FF900D"/>
</linearGradient>
<linearGradient id="paint8_linear_915_114" x1="505.122" y1="92.9688" x2="505.122" y2="159.425" gradientUnits="userSpaceOnUse">
<stop stop-color="#FF900D"/>
<stop offset="0.0001" stop-color="#FFAE4F"/>
<stop offset="0.146875" stop-color="#FD9C2A"/>
<stop offset="0.480208" stop-color="#FF900D"/>
<stop offset="1" stop-color="#FF900D"/>
</linearGradient>
<linearGradient id="paint9_linear_915_114" x1="417.683" y1="69.5322" x2="417.683" y2="160.267" gradientUnits="userSpaceOnUse">
<stop stop-color="#BBBBBB"/>
<stop offset="0.313542" stop-color="#646464"/>
<stop offset="0.870833" stop-color="#292929"/>
<stop offset="1" stop-color="#1E1E1E"/>
</linearGradient>
<linearGradient id="paint10_linear_915_114" x1="361.262" y1="49.5685" x2="361.262" y2="160.267" gradientUnits="userSpaceOnUse">
<stop stop-color="#BBBBBB"/>
<stop offset="0.313542" stop-color="#646464"/>
<stop offset="0.870833" stop-color="#292929"/>
<stop offset="1" stop-color="#1E1E1E"/>
</linearGradient>
<linearGradient id="paint11_linear_915_114" x1="305.192" y1="70.5728" x2="305.192" y2="160.267" gradientUnits="userSpaceOnUse">
<stop stop-color="#BBBBBB"/>
<stop offset="0.313542" stop-color="#646464"/>
<stop offset="0.870833" stop-color="#292929"/>
<stop offset="1" stop-color="#1E1E1E"/>
</linearGradient>
<linearGradient id="paint12_linear_915_114" x1="231.648" y1="40.9679" x2="231.648" y2="159.425" gradientUnits="userSpaceOnUse">
<stop stop-color="#BBBBBB"/>
<stop offset="0.313542" stop-color="#646464"/>
<stop offset="0.870833" stop-color="#292929"/>
<stop offset="1" stop-color="#1E1E1E"/>
</linearGradient>
<linearGradient id="paint13_linear_915_114" x1="99.6078" y1="75.3611" x2="99.6078" y2="208.694" gradientUnits="userSpaceOnUse">
<stop stop-color="#FF900D"/>
<stop offset="0.0001" stop-color="#FFAE4F"/>
<stop offset="0.146875" stop-color="#FD9C2A"/>
<stop offset="0.480208" stop-color="#FF900D"/>
<stop offset="1" stop-color="#FF900D"/>
</linearGradient>
<linearGradient id="paint14_linear_915_114" x1="110.839" y1="-6.52116" x2="110.839" y2="83.3071" gradientUnits="userSpaceOnUse">
<stop stop-color="#BBBBBB"/>
<stop offset="0.313542" stop-color="#646464"/>
<stop offset="0.870833" stop-color="#292929"/>
<stop offset="1" stop-color="#1E1E1E"/>
</linearGradient>
</defs>
</svg>
